<?xml version="1.0" encoding="UTF-8" standalone="no"?>
<!-- Created with Inkscape (http://www.inkscape.org/) -->

<svg
   width="34.993629mm"
   height="15.297479mm"
   viewBox="0 0 34.993629 15.297479"
   version="1.1"
   id="svg5"
   inkscape:version="1.2.1 (9c6d41e410, 2022-07-14, custom)"
   sodipodi:docname="logo-black.svg"
   xmlns:inkscape="http://www.inkscape.org/namespaces/inkscape"
   xmlns:sodipodi="http://sodipodi.sourceforge.net/DTD/sodipodi-0.dtd"
   xmlns="http://www.w3.org/2000/svg"
   xmlns:svg="http://www.w3.org/2000/svg">
  <sodipodi:namedview
     id="namedview7"
     pagecolor="#ffffff"
     bordercolor="#666666"
     borderopacity="1.0"
     inkscape:showpageshadow="2"
     inkscape:pageopacity="0.0"
     inkscape:pagecheckerboard="0"
     inkscape:deskcolor="#d1d1d1"
     inkscape:document-units="mm"
     showgrid="false"
     showguides="true"
     inkscape:zoom="8"
     inkscape:cx="77.0625"
     inkscape:cy="52.375"
     inkscape:window-width="2560"
     inkscape:window-height="1403"
     inkscape:window-x="0"
     inkscape:window-y="0"
     inkscape:window-maximized="1"
     inkscape:current-layer="text113" />
  <defs
     id="defs2" />
  <g
     inkscape:label="Layer 1"
     inkscape:groupmode="layer"
     id="layer1"
     transform="translate(-81.811881,-102.07108)">
    <g
       aria-label="George"
       id="text113"
       style="font-size:6.25451px;line-height:1.25;letter-spacing:-0.396875px;stroke-width:0.156362">
      <path
         d="m 95.128651,104.09129 h 1.770027 v 2.31417 q -0.350253,0.11884 -0.731778,0.18764 -0.375271,0.0688 -0.856868,0.0688 -1.000721,0 -1.538609,-0.58793 -0.537888,-0.58792 -0.537888,-1.71373 0,-0.70051 0.268944,-1.21338 0.275198,-0.51287 0.794323,-0.79432 0.519124,-0.28146 1.269665,-0.28146 0.356507,0 0.700505,0.0751 0.343998,0.0751 0.625451,0.20014 l -0.312725,0.7568 q -0.206399,-0.10633 -0.469089,-0.17513 -0.262689,-0.0688 -0.550396,-0.0688 -0.412798,0 -0.719269,0.18764 -0.300217,0.18763 -0.469088,0.53163 -0.162618,0.33775 -0.162618,0.80058 0,0.43781 0.118836,0.77556 0.118836,0.33774 0.375271,0.53163 0.256435,0.18764 0.669232,0.18764 0.200145,0 0.337744,-0.0188 0.143854,-0.0188 0.262689,-0.0438 v -0.93192 h -0.844359 z"
         style="font-weight:bold;-inkscape-font-specification:'sans-serif Bold'"
         id="path973" />
      <path
         d="m 98.897286,103.12184 q 0.70676,0 1.119554,0.40655 0.4128,0.40028 0.4128,1.14457 v 0.45033 h -2.201586 q 0.01251,0.39403 0.231416,0.61919 0.225163,0.22516 0.619197,0.22516 0.331489,0 0.600433,-0.0625 0.268944,-0.0688 0.55665,-0.2064 v 0.71927 q -0.250179,0.12509 -0.531632,0.18138 -0.275199,0.0626 -0.669233,0.0626 -0.512869,0 -0.906904,-0.18764 -0.394034,-0.19389 -0.619196,-0.58167 -0.225162,-0.38778 -0.225162,-0.9757 0,-0.60044 0.200144,-0.99447 0.206399,-0.40029 0.56916,-0.60043 0.362762,-0.20015 0.844359,-0.20015 z m 0.0063,0.66298 q -0.268944,0 -0.450325,0.17513 -0.175126,0.17512 -0.206399,0.54414 h 1.307193 q -0.0063,-0.31273 -0.162618,-0.51287 -0.156362,-0.2064 -0.487851,-0.2064 z"
         style="font-weight:bold;-inkscape-font-specification:'sans-serif Bold'"
         id="path975" />
      <path
         d="m 103.8918,104.88561 q 0,0.85062 -0.45033,1.31345 -0.44407,0.46284 -1.21337,0.46284 -0.47535,0 -0.85062,-0.2064 -0.36901,-0.2064 -0.58167,-0.60044 -0.21265,-0.40029 -0.21265,-0.96945 0,-0.85061 0.44407,-1.30719 0.44407,-0.45658 1.21963,-0.45658 0.4816,0 0.85061,0.2064 0.36902,0.2064 0.58167,0.60043 0.21266,0.38778 0.21266,0.95694 z m -2.35795,0 q 0,0.50662 0.16261,0.76931 0.16887,0.25643 0.54415,0.25643 0.36901,0 0.53163,-0.25643 0.16887,-0.26269 0.16887,-0.76931 0,-0.50661 -0.16887,-0.75679 -0.16262,-0.25644 -0.53789,-0.25644 -0.36902,0 -0.53789,0.25644 -0.16261,0.25018 -0.16261,0.75679 z"
         style="font-weight:bold;-inkscape-font-specification:'sans-serif Bold'"
         id="path977" />
      <path
         d="m 106.17185,103.12184 c 0.0459,0 0.10007,0.002 0.16262,0.006 0.0625,0.004 0.11257,0.0103 0.1501,0.0188 l -0.0688,0.87563 c -0.0292,-0.008 -0.073,-0.0146 -0.13134,-0.0188 -0.0542,-0.008 -0.10215,-0.0125 -0.14385,-0.0125 -0.15845,0 -0.31065,0.0292 -0.45658,0.0876 -0.14594,0.0542 -0.26478,0.14385 -0.35651,0.26895 -0.0876,0.12509 -0.13135,0.29604 -0.13135,0.51287 v 9.62674 l -0.93192,-0.004 V 103.1838 h 0.70676 l 0.1376,0.57541 h 0.0438 c 0.10007,-0.17513 0.23767,-0.32523 0.4128,-0.45032 0.17513,-0.12509 0.37736,-0.18764 0.60669,-0.18764 z"
         style="font-weight:bold;-inkscape-font-specification:'sans-serif Bold'"
         id="path979"
         sodipodi:nodetypes="cscccsccsccccccscc" />
      <path
         d="m 107.7514,103.12184 q 0.63171,0 0.98821,0.50036 h 0.025 l 0.0751,-0.43781 h 0.78807 v 3.42121 q 0,0.73178 -0.43156,1.11331 -0.43156,0.38152 -1.27592,0.38152 -0.36276,0 -0.67549,-0.0438 -0.30647,-0.0438 -0.60043,-0.15636 V 107.156 q 0.63171,0.26269 1.33221,0.26269 0.71927,0 0.71927,-0.77556 v -0.0688 q 0,-0.10632 0.006,-0.21891 0.0125,-0.11258 0.0188,-0.20014 h -0.025 q -0.17513,0.26894 -0.41905,0.38778 -0.24393,0.11884 -0.5504,0.11884 -0.60669,0 -0.95068,-0.46284 -0.33775,-0.46909 -0.33775,-1.30094 0,-0.8381 0.35026,-1.30719 0.35025,-0.46909 0.96319,-0.46909 z m 0.29396,0.7568 q -0.65672,0 -0.65672,1.03199 0,1.01949 0.66923,1.01949 0.35651,0 0.52538,-0.20015 0.17513,-0.2064 0.17513,-0.71301 v -0.11258 q 0,-0.5504 -0.16888,-0.78807 -0.16887,-0.23767 -0.54414,-0.23767 z"
         style="font-weight:bold;-inkscape-font-specification:'sans-serif Bold'"
         id="path981" />
      <path
         d="m 111.61384,103.12184 q 0.70676,0 1.11956,0.40655 0.4128,0.40028 0.4128,1.14457 v 0.45033 h -2.20159 q 0.0125,0.39403 0.23142,0.61919 0.22516,0.22516 0.61919,0.22516 0.33149,0 0.60044,-0.0625 0.26894,-0.0688 0.55665,-0.2064 v 0.71927 q -0.25018,0.12509 -0.53164,0.18138 -0.27519,0.0626 -0.66923,0.0626 -0.51287,0 -0.9069,-0.18764 -0.39404,-0.19389 -0.6192,-0.58167 -0.22516,-0.38778 -0.22516,-0.9757 0,-0.60044 0.20014,-0.99447 0.2064,-0.40029 0.56916,-0.60043 0.36276,-0.20015 0.84436,-0.20015 z m 0.006,0.66298 q -0.26895,0 -0.45033,0.17513 -0.17512,0.17512 -0.2064,0.54414 h 1.3072 q -0.006,-0.31273 -0.16262,-0.51287 -0.15636,-0.2064 -0.48785,-0.2064 z"
         style="font-weight:bold;-inkscape-font-specification:'sans-serif Bold'"
         id="path983" />
    </g>
    <path
       d="m 83.970874,106.92978 q 1.418163,0 2.137827,0.42334 0.730248,0.41274 0.730248,1.44991 0,0.66675 -0.370416,1.11124 -0.370415,0.43392 -1.068913,0.56092 v 0.0529 q 0.476248,0.0741 0.857247,0.27516 0.391582,0.20108 0.613831,0.5715 0.22225,0.37041 0.22225,0.96308 0,1.02658 -0.709081,1.58749 -0.698498,0.56092 -1.915578,0.56092 h -2.656408 v -7.55648 z m 0.1905,3.21733 q 0.973663,0 1.333496,-0.30692 0.359832,-0.3175 0.359832,-0.93133 0,-0.62441 -0.444499,-0.889 -0.433915,-0.27516 -1.396995,-0.27516 h -1.24883 v 2.40241 z m -1.396996,0.79374 v 2.74108 h 1.523995 q 1.005414,0 1.396996,-0.39158 0.391582,-0.39159 0.391582,-1.02658 0,-0.59267 -0.412749,-0.9525 -0.402165,-0.37042 -1.449912,-0.37042 z"
       id="path958"
       style="font-size:10.5833px;line-height:1.25;letter-spacing:-0.224896px;stroke-width:0.264583" />
    <path
       d="m 90.984951,108.70778 q 0.15875,0 0.338666,0.0212 0.190499,0.0106 0.328082,0.0423 l -0.116416,0.85724 q -0.137583,-0.0317 -0.306916,-0.0529 -0.158749,-0.0212 -0.306915,-0.0212 -0.433916,0 -0.814914,0.24342 -0.380999,0.23283 -0.613832,0.66675 -0.222249,0.42333 -0.222249,0.99483 v 3.02682 h -0.93133 v -5.67265 h 0.761997 l 0.105833,1.03716 h 0.04233 q 0.275166,-0.46566 0.709081,-0.80433 0.433916,-0.33866 1.02658,-0.33866 z"
       id="path960"
       style="font-size:10.5833px;line-height:1.25;letter-spacing:-0.224896px;stroke-width:0.264583" />
    <path
       d="m 94.421874,108.71836 q 1.037163,0 1.534578,0.45508 0.497415,0.45508 0.497415,1.44992 v 3.8629 h -0.677331 l -0.179916,-0.80433 h -0.04233 q -0.370416,0.46566 -0.783165,0.68791 -0.402165,0.22225 -1.121829,0.22225 -0.772581,0 -1.28058,-0.40216 -0.507998,-0.41275 -0.507998,-1.28058 0,-0.84667 0.666748,-1.30175 0.666748,-0.46566 2.05316,-0.508 l 0.96308,-0.0317 v -0.33866 q 0,-0.70908 -0.306915,-0.98425 -0.306916,-0.27516 -0.867831,-0.27516 -0.444499,0 -0.846664,0.13758 -0.402165,0.127 -0.751414,0.29633 l -0.285749,-0.6985 q 0.370415,-0.20108 0.878414,-0.33866 0.507998,-0.14817 1.05833,-0.14817 z m 0.275165,3.02682 q -1.05833,0.0423 -1.471078,0.33867 -0.402166,0.29633 -0.402166,0.83608 0,0.47625 0.285749,0.6985 0.296333,0.22225 0.751415,0.22225 0.719664,0 1.195913,-0.39158 0.476248,-0.40217 0.476248,-1.22767 v -0.508 z"
       id="path962"
       style="font-size:10.5833px;line-height:1.25;letter-spacing:-0.224896px;stroke-width:0.264583" />
    <path
       d="m 99.996635,114.59209 q -1.05833,0 -1.693328,-0.73025 -0.634998,-0.74083 -0.634998,-2.20132 0,-1.4605 0.634998,-2.20133 0.645581,-0.75141 1.703913,-0.75141 0.65616,0 1.06891,0.24341 0.42333,0.24342 0.68792,0.59267 h 0.0635 q -0.0106,-0.13758 -0.0423,-0.40217 -0.0212,-0.27516 -0.0212,-0.43391 v -2.26483 h 0.93133 v 8.04331 h -0.75142 l -0.13758,-0.762 h -0.0423 q -0.254,0.35983 -0.67734,0.61383 -0.42333,0.254 -1.090075,0.254 z m 0.148165,-0.77258 q 0.89958,0 1.25941,-0.48683 0.37042,-0.49742 0.37042,-1.49225 v -0.16933 q 0,-1.05833 -0.34925,-1.61924 -0.34925,-0.5715 -1.29116,-0.5715 -0.751417,0 -1.132415,0.60325 -0.370416,0.59266 -0.370416,1.59808 0,1.01599 0.370416,1.57691 0.380998,0.56091 1.142995,0.56091 z"
       id="path964"
       style="font-size:10.5833px;line-height:1.25;letter-spacing:-0.224896px;stroke-width:0.264583" />
    <path
       d="m 108.96597,108.70778 q 0.73025,0 1.24883,0.3175 0.52916,0.3175 0.80433,0.89958 0.28575,0.5715 0.28575,1.34408 v 0.56091 h -3.88407 q 0.0212,0.96308 0.48683,1.47108 0.47625,0.49741 1.32291,0.49741 0.53975,0 0.9525,-0.0952 0.42333,-0.10584 0.86783,-0.29634 v 0.81492 q -0.43392,0.1905 -0.85725,0.27516 -0.42333,0.0952 -1.00541,0.0952 -0.80433,0 -1.42875,-0.32808 -0.61383,-0.32808 -0.96308,-0.97366 -0.33866,-0.65617 -0.33866,-1.59808 0,-0.93133 0.30691,-1.59808 0.3175,-0.66675 0.87842,-1.02658 0.5715,-0.35983 1.32291,-0.35983 z m -0.0106,0.762 q -0.66675,0 -1.05833,0.43391 -0.381,0.42333 -0.45509,1.18533 h 2.88925 q -0.0106,-0.71966 -0.33867,-1.16416 -0.32808,-0.45508 -1.03716,-0.45508 z"
       id="path968"
       style="font-size:10.5833px;line-height:1.25;letter-spacing:-0.224896px;stroke-width:0.264583" />
    <path
       d="m 111.41864,108.81361 h 0.99483 l 1.22766,3.22791 c 0.10583,0.28222 0.20108,0.55386 0.28575,0.81491 0.0847,0.254 0.14817,0.49742 0.1905,0.73025 h 0.0423 c 0.0423,-0.17639 0.10936,-0.40569 0.20108,-0.68792 0.0917,-0.28927 0.18698,-0.57855 0.28575,-0.86783 l 1.15358,-3.21732 h 1.00542 l -2.44475,6.45581 c -0.19755,0.53622 -0.45508,0.96308 -0.77258,1.28058 -0.31044,0.3175 -0.74083,0.47625 -1.29116,0.47625 -0.0972,0 -0.1482,0.002 -0.1482,0.002 0,0 3e-5,-0.68278 3e-5,-0.76387 0.32456,0 0.58562,-0.0917 0.78317,-0.27516 0.20461,-0.18345 0.36336,-0.42686 0.47625,-0.73025 l 0.29633,-0.75141 z"
       id="path970"
       style="font-size:10.5833px;line-height:1.25;letter-spacing:-0.224896px;stroke-width:0.264583"
       sodipodi:nodetypes="ccccccccccccscccccc" />
    <g
       aria-label="gbrad.com"
       id="text279"
       style="font-size:1.3884px;line-height:1.25;stroke-width:0.0347098"
       transform="matrix(1.0240865,0,0,1.0240865,-2.0138391,-2.7987342)">
      <path
         d="m 104.70304,116.24969 q 0.0736,0 0.1319,0.0278 0.0597,0.0278 0.10135,0.0847 h 0.007 l 0.0167,-0.0986 h 0.0972 v 0.75667 q 0,0.15967 -0.0819,0.2402 -0.0805,0.0805 -0.2513,0.0805 -0.16383,0 -0.26796,-0.0472 v -0.11246 q 0.10969,0.0583 0.27491,0.0583 0.0958,0 0.14994,-0.0569 0.0555,-0.0555 0.0555,-0.15273 v -0.0292 q 0,-0.0167 0.001,-0.0472 10e-4,-0.0319 0.003,-0.0444 h -0.006 q -0.075,0.11246 -0.23047,0.11246 -0.1444,0 -0.22631,-0.10135 -0.0805,-0.10135 -0.0805,-0.28323 0,-0.17772 0.0805,-0.28185 0.0819,-0.10552 0.22492,-0.10552 z m 0.0167,0.10274 q -0.093,0 -0.14439,0.075 -0.0514,0.0736 -0.0514,0.21103 0,0.13746 0.05,0.21104 0.0514,0.0722 0.14856,0.0722 0.11246,0 0.16383,-0.0597 0.0514,-0.0611 0.0514,-0.19577 v -0.0292 q 0,-0.15273 -0.0528,-0.21798 -0.0528,-0.0666 -0.16522,-0.0666 z"
         id="path986" />
      <path
         d="m 105.41529,116.20943 q 0,0.0472 -0.003,0.0889 -0.001,0.0403 -0.004,0.0639 h 0.007 q 0.0319,-0.0472 0.0875,-0.0791 0.0555,-0.0319 0.143,-0.0319 0.13884,0 0.22215,0.0972 0.0847,0.0958 0.0847,0.2874 0,0.1916 -0.0847,0.28879 -0.0847,0.0972 -0.22215,0.0972 -0.0875,0 -0.143,-0.0319 -0.0555,-0.0319 -0.0875,-0.0764 h -0.01 l -0.025,0.0944 h -0.0875 v -1.05518 h 0.12218 z m 0.20965,0.143 q -0.11802,0 -0.16384,0.068 -0.0458,0.068 -0.0458,0.21103 v 0.006 q 0,0.13745 0.0444,0.21103 0.0458,0.0722 0.16799,0.0722 0.1,0 0.14856,-0.0736 0.05,-0.0736 0.05,-0.21242 0,-0.28185 -0.20131,-0.28185 z"
         id="path988" />
      <path
         d="m 106.49407,116.24969 q 0.0208,0 0.0444,0.003 0.025,0.001 0.043,0.006 l -0.0153,0.11246 q -0.0181,-0.004 -0.0403,-0.007 -0.0208,-0.003 -0.0403,-0.003 -0.0569,0 -0.1069,0.0319 -0.05,0.0305 -0.0805,0.0875 -0.0292,0.0555 -0.0292,0.13051 v 0.39708 h -0.12218 v -0.74418 h 0.1 l 0.0139,0.13606 h 0.006 q 0.0361,-0.0611 0.093,-0.10552 0.0569,-0.0444 0.13467,-0.0444 z"
         id="path990" />
      <path
         d="m 106.97446,116.25108 q 0.13606,0 0.20132,0.0597 0.0652,0.0597 0.0652,0.19021 v 0.50677 h -0.0889 l -0.0236,-0.10552 h -0.006 q -0.0486,0.0611 -0.10274,0.0902 -0.0528,0.0292 -0.14717,0.0292 -0.10136,0 -0.168,-0.0528 -0.0666,-0.0541 -0.0666,-0.16799 0,-0.11107 0.0875,-0.17078 0.0875,-0.0611 0.26935,-0.0666 l 0.12634,-0.004 v -0.0444 q 0,-0.093 -0.0403,-0.12912 -0.0403,-0.0361 -0.11385,-0.0361 -0.0583,0 -0.11107,0.0181 -0.0528,0.0167 -0.0986,0.0389 l -0.0375,-0.0916 q 0.0486,-0.0264 0.11524,-0.0444 0.0666,-0.0194 0.13884,-0.0194 z m 0.0361,0.39708 q -0.13884,0.006 -0.19299,0.0444 -0.0528,0.0389 -0.0528,0.10969 0,0.0625 0.0375,0.0916 0.0389,0.0292 0.0986,0.0292 0.0944,0 0.15689,-0.0514 0.0625,-0.0528 0.0625,-0.16106 v -0.0666 z"
         id="path992" />
      <path
         d="m 107.7353,117.02164 q -0.13884,0 -0.22214,-0.0958 -0.0833,-0.0972 -0.0833,-0.28878 0,-0.1916 0.0833,-0.28879 0.0847,-0.0986 0.22353,-0.0986 0.0861,0 0.14023,0.0319 0.0555,0.0319 0.0902,0.0777 h 0.008 q -0.001,-0.0181 -0.006,-0.0528 -0.003,-0.0361 -0.003,-0.0569 v -0.29711 h 0.12218 v 1.05518 h -0.0986 l -0.0181,-0.1 h -0.006 q -0.0333,0.0472 -0.0889,0.0805 -0.0555,0.0333 -0.14301,0.0333 z m 0.0194,-0.10135 q 0.11802,0 0.16522,-0.0639 0.0486,-0.0653 0.0486,-0.19576 v -0.0222 q 0,-0.13884 -0.0458,-0.21242 -0.0458,-0.075 -0.16939,-0.075 -0.0986,0 -0.14856,0.0791 -0.0486,0.0778 -0.0486,0.20965 0,0.13329 0.0486,0.20687 0.05,0.0736 0.14995,0.0736 z"
         id="path994" />
      <path
         d="m 108.30732,116.93279 q 0,-0.0514 0.025,-0.0722 0.025,-0.0208 0.0597,-0.0208 0.0361,0 0.0611,0.0208 0.0264,0.0208 0.0264,0.0722 0,0.05 -0.0264,0.0722 -0.025,0.0222 -0.0611,0.0222 -0.0347,0 -0.0597,-0.0222 -0.025,-0.0222 -0.025,-0.0722 z"
         id="path996" />
      <path
         d="m 108.99597,117.02164 q -0.0986,0 -0.17633,-0.0403 -0.0764,-0.0403 -0.12079,-0.12496 -0.043,-0.0847 -0.043,-0.21659 0,-0.13745 0.0458,-0.22353 0.0458,-0.0861 0.12357,-0.12634 0.0791,-0.0403 0.1791,-0.0403 0.0569,0 0.10968,0.0125 0.0528,0.0111 0.0861,0.0278 l -0.0375,0.10135 q -0.0333,-0.0125 -0.0778,-0.0236 -0.0444,-0.0111 -0.0833,-0.0111 -0.21936,0 -0.21936,0.28184 0,0.13468 0.0528,0.20688 0.0541,0.0708 0.15966,0.0708 0.0611,0 0.10691,-0.0125 0.0472,-0.0125 0.0861,-0.0306 v 0.1083 q -0.0375,0.0194 -0.0833,0.0292 -0.0444,0.0111 -0.1083,0.0111 z"
         id="path998" />
      <path
         d="m 110.01089,116.63428 q 0,0.18466 -0.0944,0.28601 -0.093,0.10135 -0.25269,0.10135 -0.0986,0 -0.17633,-0.0444 -0.0764,-0.0458 -0.12079,-0.13189 -0.0444,-0.0875 -0.0444,-0.21104 0,-0.18466 0.093,-0.28462 0.093,-0.1 0.25269,-0.1 0.10135,0 0.17771,0.0458 0.0777,0.0444 0.12079,0.13051 0.0444,0.0847 0.0444,0.20826 z m -0.5623,0 q 0,0.1319 0.0514,0.20965 0.0528,0.0764 0.16661,0.0764 0.11246,0 0.16522,-0.0764 0.0528,-0.0777 0.0528,-0.20965 0,-0.1319 -0.0528,-0.20687 -0.0528,-0.075 -0.16661,-0.075 -0.11385,0 -0.16522,0.075 -0.0514,0.075 -0.0514,0.20687 z"
         id="path1000" />
      <path
         d="m 111.02026,116.24969 q 0.12634,0 0.18882,0.0653 0.0625,0.0639 0.0625,0.20826 v 0.48455 h -0.12079 v -0.479 q 0,-0.17633 -0.15134,-0.17633 -0.1083,0 -0.1555,0.0625 -0.0458,0.0625 -0.0458,0.18188 v 0.41097 h -0.12079 v -0.479 q 0,-0.17633 -0.15272,-0.17633 -0.11246,0 -0.1555,0.0694 -0.043,0.0694 -0.043,0.19993 v 0.38598 h -0.12218 v -0.74418 h 0.0986 l 0.0181,0.10135 h 0.007 q 0.0347,-0.0583 0.093,-0.0861 0.0597,-0.0292 0.12634,-0.0292 0.17494,0 0.2277,0.12496 h 0.007 q 0.0375,-0.0639 0.10135,-0.0944 0.0653,-0.0306 0.13746,-0.0306 z"
         id="path1002" />
    </g>
  </g>
</svg>
